{
  "accessors": [
    {
      "bufferView": 2,
      "componentType": 5126,
      "count": 65532,
      "max": [
        0.9517319798469543,
        0.45201200246810913,
        0.38138699531555176
      ],
      "min": [
        -0.9509220123291016,
        -0.49563300609588623,
        -0.3788610100746155
      ],
      "type": "VEC3"
    },
    {
      "bufferView": 2,
      "byteOffset": 786384,
      "componentType": 5126,
      "count": 65532,
      "max": [
        0.9999889135360718,
        1.0,
        0.9999994039535522
      ],
      "min": [
        -0.9999106526374817,
        -0.999993085861206,
        -0.9999922513961792
      ],
      "type": "VEC3"
    },
    {
      "bufferView": 3,
      "componentType": 5126,
      "count": 65532,
      "max": [
        0.9999653100967407,
        0.9999186396598816,
        0.9999960064888,
        1.0
      ],
      "min": [
        -0.9999609589576721,
        -0.9999948143959045,
        -0.9999992847442627,
        -1.0
      ],
      "type": "VEC4"
    },
    {
      "bufferView": 1,
      "componentType": 5126,
      "count": 65532,
      "max": [
        0.9999809861183167,
        0.9998319745063782
      ],
      "min": [
        0.000598000013269484,
        0.004001021385192871
      ],
      "type": "VEC2"
    },
    {
      "bufferView": 1,
      "byteOffset": 524256,
      "componentType": 5126,
      "count": 65532,
      "max": [
        0.9999809861183167,
        0.9998319745063782
      ],
      "min": [
        0.000598000013269484,
        0.004001021385192871
      ],
      "type": "VEC2"
    },
    {
      "bufferView": 1,
      "byteOffset": 1048512,
      "componentType": 5126,
      "count": 65532,
      "max": [
        0.9999809861183167,
        0.9998319745063782
      ],
      "min": [
        0.000598000013269484,
        0.004001021385192871
      ],
      "type": "VEC2"
    },
    {
      "bufferView": 1,
      "byteOffset": 1572768,
      "componentType": 5126,
      "count": 65532,
      "max": [
        0.9999809861183167,
        0.9998319745063782
      ],
      "min": [
        0.000598000013269484,
        0.004001021385192871
      ],
      "type": "VEC2"
    },
    {
      "bufferView": 0,
      "componentType": 5125,
      "count": 342384,
      "type": "SCALAR"
    },
    {
      "bufferView": 2,
      "byteOffset": 1572768,
      "componentType": 5126,
      "count": 65532,
      "max": [
        0.9368299841880798,
        0.45590901374816895,
        0.38138699531555176
      ],
      "min": [
        -0.9506170153617859,
        -0.49040699005126953,
        -0.37229299545288086
      ],
      "type": "VEC3"
    },
    {
      "bufferView": 2,
      "byteOffset": 2359152,
      "componentType": 5126,
      "count": 65532,
      "max": [
        0.9998798370361328,
        0.9999908208847046,
        0.9999988079071045
      ],
      "min": [
        -0.9999881982803345,
        -0.999984860420227,
        -0.9999898672103882
      ],
      "type": "VEC3"
    },
    {
      "bufferView": 3,
      "byteOffset": 1048512,
      "componentType": 5126,
      "count": 65532,
      "max": [
        0.9999850988388062,
        0.9999719262123108,
        0.9999951720237732,
        1.0
      ],
      "min": [
        -0.9999934434890747,
        -0.9999797940254211,
        -0.9999566078186035,
        -1.0
      ],
      "type": "VEC4"
    },
    {
      "bufferView": 1,
      "byteOffset": 2097024,
      "componentType": 5126,
      "count": 65532,
      "max": [
        0.9999169707298279,
        0.999983012676239
      ],
      "min": [
        0.003183000022545457,
        0.002080976963043213
      ],
      "type": "VEC2"
    },
    {
      "bufferView": 1,
      "byteOffset": 2621280,
      "componentType": 5126,
      "count": 65532,
      "max": [
        0.9999169707298279,
        0.999983012676239
      ],
      "min": [
        0.003183000022545457,
        0.002080976963043213
      ],
      "type": "VEC2"
    },
    {
      "bufferView": 1,
      "byteOffset": 3145536,
      "componentType": 5126,
      "count": 65532,
      "max": [
        0.9999169707298279,
        0.999983012676239
      ],
      "min": [
        0.003183000022545457,
        0.002080976963043213
      ],
      "type": "VEC2"
    },
    {
      "bufferView": 1,
      "byteOffset": 3669792,
      "componentType": 5126,
      "count": 65532,
      "max": [
        0.9999169707298279,
        0.999983012676239
      ],
      "min": [
        0.003183000022545457,
        0.002080976963043213
      ],
      "type": "VEC2"
    },
    {
      "bufferView": 0,
      "byteOffset": 1369536,
      "componentType": 5125,
      "count": 334839,
      "type": "SCALAR"
    },
    {
      "bufferView": 2,
      "byteOffset": 3145536,
      "componentType": 5126,
      "count": 65532,
      "max": [
        0.9468140006065369,
        0.3783020079135895,
        0.2766909897327423
      ],
      "min": [
        -0.9433779716491699,
        -0.4958930015563965,
        -0.3781850039958954
      ],
      "type": "VEC3"
    },
    {
      "bufferView": 2,
      "byteOffset": 3931920,
      "componentType": 5126,
      "count": 65532,
      "max": [
        0.9997891783714294,
        1.0,
        0.9999986886978149
      ],
      "min": [
        -0.9990996718406677,
        -0.999984860420227,
        -0.9999948740005493
      ],
      "type": "VEC3"
    },
    {
      "bufferView": 3,
      "byteOffset": 2097024,
      "componentType": 5126,
      "count": 65532,
      "max": [
        0.9999251961708069,
        0.9999406933784485,
        0.9999943971633911,
        1.0
      ],
      "min": [
        -0.9999719262123108,
        -0.9999726414680481,
        -0.9999915957450867,
        -1.0
      ],
      "type": "VEC4"
    },
    {
      "bufferView": 1,
      "byteOffset": 4194048,
      "componentType": 5126,
      "count": 65532,
      "max": [
        0.9997529983520508,
        0.9999499917030334
      ],
      "min": [
        0.00011500000255182385,
        0.00209200382232666
      ],
      "type": "VEC2"
    },
    {
      "bufferView": 1,
      "byteOffset": 4718304,
      "componentType": 5126,
      "count": 65532,
      "max": [
        0.9997529983520508,
        0.9999499917030334
      ],
      "min": [
        0.00011500000255182385,
        0.00209200382232666
      ],
      "type": "VEC2"
    },
    {
      "bufferView": 1,
      "byteOffset": 5242560,
      "componentType": 5126,
      "count": 65532,
      "max": [
        0.9997529983520508,
        0.9999499917030334
      ],
      "min": [
        0.00011500000255182385,
        0.00209200382232666
      ],
      "type": "VEC2"
    },
    {
      "bufferView": 1,
      "byteOffset": 5766816,
      "componentType": 5126,
      "count": 65532,
      "max": [
        0.9997529983520508,
        0.9999499917030334
      ],
      "min": [
        0.00011500000255182385,
        0.00209200382232666
      ],
      "type": "VEC2"
    },
    {
      "bufferView": 0,
      "byteOffset": 2708892,
      "componentType": 5125,
      "count": 319260,
      "type": "SCALAR"
    },
    {
      "bufferView": 2,
      "byteOffset": 4718304,
      "componentType": 5126,
      "count": 32641,
      "max": [
        0.9513360261917114,
        0.49346300959587097,
        0.17480500042438507
      ],
      "min": [
        -0.9493100047111511,
        -0.4955900013446808,
        -0.3759250044822693
      ],
      "type": "VEC3"
    },
    {
      "bufferView": 2,
      "byteOffset": 5109996,
      "componentType": 5126,
      "count": 32641,
      "max": [
        0.9998703002929688,
        0.9999983310699463,
        0.9999938011169434
      ],
      "min": [
        -0.9999542236328125,
        -0.9999786615371704,
        -0.9999873638153076
      ],
      "type": "VEC3"
    },
    {
      "bufferView": 3,
      "byteOffset": 3145536,
      "componentType": 5126,
      "count": 32641,
      "max": [
        0.9999123215675354,
        0.9998816847801208,
        0.999997079372406,
        1.0
      ],
      "min": [
        -0.9999836087226868,
        -0.9998039603233337,
        -0.9999898076057434,
        -1.0
      ],
      "type": "VEC4"
    },
    {
      "bufferView": 1,
      "byteOffset": 6291072,
      "componentType": 5126,
      "count": 32641,
      "max": [
        0.999875009059906,
        0.9998369812965393
      ],
      "min": [
        4.8000001697801054e-05,
        0.002544999122619629
      ],
      "type": "VEC2"
    },
    {
      "bufferView": 1,
      "byteOffset": 6552200,
      "componentType": 5126,
      "count": 32641,
      "max": [
        0.999875009059906,
        0.9998369812965393
      ],
      "min": [
        4.8000001697801054e-05,
        0.002544999122619629
      ],
      "type": "VEC2"
    },
    {
      "bufferView": 1,
      "byteOffset": 6813328,
      "componentType": 5126,
      "count": 32641,
      "max": [
        0.999875009059906,
        0.9998369812965393
      ],
      "min": [
        4.8000001697801054e-05,
        0.002544999122619629
      ],
      "type": "VEC2"
    },
    {
      "bufferView": 1,
      "byteOffset": 7074456,
      "componentType": 5126,
      "count": 32641,
      "max": [
        0.999875009059906,
        0.9998369812965393
      ],
      "min": [
        4.8000001697801054e-05,
        0.002544999122619629
      ],
      "type": "VEC2"
    },
    {
      "bufferView": 0,
      "byteOffset": 3985932,
      "componentType": 5125,
      "count": 134703,
      "type": "SCALAR"
    }
  ],
  "asset": {
    "extras": {
      "author": "Taturay (https://sketchfab.com/Taturay)",
      "license": "CC-BY-4.0 (http://creativecommons.org/licenses/by/4.0/)",
      "source": "https://sketchfab.com/3d-models/nike-tc-7900-ce036b3d7f89439ab784194ca2a1f265",
      "title": "Nike TC 7900"
    },
    "generator": "Sketchfab-16.82.0",
    "version": "2.0"
  },
  "bufferViews": [
    {
      "buffer": 0,
      "byteLength": 4524744,
      "name": "floatBufferViews",
      "target": 34963
    },
    {
      "buffer": 0,
      "byteLength": 7335584,
      "byteOffset": 4524744,
      "byteStride": 8,
      "name": "floatBufferViews",
      "target": 34962
    },
    {
      "buffer": 0,
      "byteLength": 5501688,
      "byteOffset": 11860328,
      "byteStride": 12,
      "name": "floatBufferViews",
      "target": 34962
    },
    {
      "buffer": 0,
      "byteLength": 3667792,
      "byteOffset": 17362016,
      "byteStride": 16,
      "name": "floatBufferViews",
      "target": 34962
    }
  ],
  "buffers": [
    {
      "byteLength": 21029808,
      "uri": "scene.bin"
    }
  ],
  "images": [
    {
      "uri": "textures/Material_0_baseColor.png"
    },
    {
      "uri": "textures/Material_0_metallicRoughness.png"
    },
    {
      "uri": "textures/Material_0_normal.jpeg"
    }
  ],
  "materials": [
    {
      "doubleSided": true,
      "name": "Material_0",
      "normalTexture": {
        "index": 2,
        "texCoord": 2
      },
      "pbrMetallicRoughness": {
        "baseColorTexture": {
          "index": 0
        },
        "metallicRoughnessTexture": {
          "index": 1,
          "texCoord": 1
        }
      }
    }
  ],
  "meshes": [
    {
      "name": "Object_0",
      "primitives": [
        {
          "attributes": {
            "NORMAL": 1,
            "POSITION": 0,
            "TANGENT": 2,
            "TEXCOORD_0": 3,
            "TEXCOORD_1": 4,
            "TEXCOORD_2": 5,
            "TEXCOORD_3": 6
          },
          "indices": 7,
          "material": 0,
          "mode": 4
        }
      ]
    },
    {
      "name": "Object_1",
      "primitives": [
        {
          "attributes": {
            "NORMAL": 9,
            "POSITION": 8,
            "TANGENT": 10,
            "TEXCOORD_0": 11,
            "TEXCOORD_1": 12,
            "TEXCOORD_2": 13,
            "TEXCOORD_3": 14
          },
          "indices": 15,
          "material": 0,
          "mode": 4
        }
      ]
    },
    {
      "name": "Object_2",
      "primitives": [
        {
          "attributes": {
            "NORMAL": 17,
            "POSITION": 16,
            "TANGENT": 18,
            "TEXCOORD_0": 19,
            "TEXCOORD_1": 20,
            "TEXCOORD_2": 21,
            "TEXCOORD_3": 22
          },
          "indices": 23,
          "material": 0,
          "mode": 4
        }
      ]
    },
    {
      "name": "Object_3",
      "primitives": [
        {
          "attributes": {
            "NORMAL": 25,
            "POSITION": 24,
            "TANGENT": 26,
            "TEXCOORD_0": 27,
            "TEXCOORD_1": 28,
            "TEXCOORD_2": 29,
            "TEXCOORD_3": 30
          },
          "indices": 31,
          "material": 0,
          "mode": 4
        }
      ]
    }
  ],
  "nodes": [
    {
      "children": [
        1
      ],
      "matrix": [
        1.0,
        0.0,
        0.0,
        0.0,
        0.0,
        2.220446049250313e-16,
        -1.0,
        0.0,
        0.0,
        1.0,
        2.220446049250313e-16,
        0.0,
        0.0,
        0.0,
        0.0,
        1.0
      ],
      "name": "Sketchfab_model"
    },
    {
      "children": [
        2
      ],
      "name": "root"
    },
    {
      "children": [
        3
      ],
      "matrix": [
        1.0,
        0.0,
        0.0,
        0.0,
        0.0,
        2.220446049250313e-16,
        1.0,
        0.0,
        0.0,
        -1.0,
        2.220446049250313e-16,
        0.0,
        0.0,
        0.0,
        0.0,
        1.0
      ],
      "name": "GLTF_SceneRootNode"
    },
    {
      "children": [
        4,
        5,
        6,
        7
      ],
      "name": "Mesh_0_0"
    },
    {
      "mesh": 0,
      "name": "Object_4"
    },
    {
      "mesh": 1,
      "name": "Object_5"
    },
    {
      "mesh": 2,
      "name": "Object_6"
    },
    {
      "mesh": 3,
      "name": "Object_7"
    }
  ],
  "samplers": [
    {
      "magFilter": 9729,
      "minFilter": 9987,
      "wrapS": 10497,
      "wrapT": 10497
    }
  ],
  "scene": 0,
  "scenes": [
    {
      "name": "Sketchfab_Scene",
      "nodes": [
        0
      ]
    }
  ],
  "textures": [
    {
      "sampler": 0,
      "source": 0
    },
    {
      "sampler": 0,
      "source": 1
    },
    {
      "sampler": 0,
      "source": 2
    }
  ]
}
